<svg xmlns="http://www.w3.org/2000/svg" fill="none" viewBox="0 0 24 24" id="Ganache-Icon--Streamline-Svg-Logos" height="24" width="24">
  <desc>
    Ganache Icon Streamline Icon: https://streamlinehq.com
  </desc>
  <path fill="#e4a663" d="M19.714175 17.853275c0.244875 0 0.329425 -0.0571 0.445825 -0.25585 0.1164 -0.19875 0.0604 -0.5216 0.056 -0.60945 -0.010975 -0.19325 -0.07575 -0.408475 -0.08455 -0.5161 0 -0.065875 0 -0.48645 0.0099 -0.65885 0.147125 -2.727625 1.3177 -3.3766 1.6559 -3.450175 0.2157 -0.063575 0.447025 -0.048 0.652275 0.043925V7.067875c0 -0.60285 -0.42825 -1.34405 -0.95095 -1.647125L12.948875 0.479365C12.4218 0.1740965 11.562 0.1740965 11.0437 0.47607L2.502775 5.410875c-0.52158 0.301975 -0.949835 1.043175 -0.9487375 1.647125v1.078325c-0.000435 0.0062 -0.000435 0.01245 0 0.01865v1.574675c0.049415 0.02745 0.09883 0.056 0.1482425 0.08675 0.16581 0.1098 0.329425 0.1702 0.496335 0.2855 0.47561 0.289825 0.91756 0.6316 1.31771 1.019025 0.07795 0.07465 0.3382 0.4019 0.3997 0.47875 0.189 0.26045 0.40145 0.50305 0.6347 0.72475 0.12885 0.117475 0.270675 0.2199 0.42275 0.30525 0.251475 0.130675 0.66655 0.101025 0.878475 0.0077 1.62735 -0.704975 2.648575 -0.3514 3.11965 -0.068075 1.165075 0.699475 1.5538 1.677875 1.677875 2.866 0.0163 0.153875 0.02145 0.30875 0.015375 0.463375 0 0.282225 -0.009875 0.735725 0.2877 0.8115 0.42715 0.1098 0.530375 -0.347 0.594075 -0.650075 0.14385 -0.6863 1.05745 -1.136525 1.726175 -0.790625 0.4612 0.2383 0.650075 0.37335 1.105775 0.1724 0.569925 -0.25145 0.8642 -0.89165 1.06295 -1.23205 0.19635 -0.33145 0.48065 -0.60205 0.821375 -0.781825 0.88945 -0.55455 3.12515 -0.4107 3.2064 2.053425l0 0.6852c0 0.234975 0.0077 0.464475 -0.007675 0.70715 -0.009875 0.161425 -0.038425 0.329425 -0.0538 0.49525 -0.0044 0 -0.08785 0.48205 0.30635 0.48425Z" stroke-width="0.25"></path>
  <path fill="#5e464d" d="M22.447225 12.411175c-0.060375 -0.018675 -0.236075 -0.133975 -0.65005 -0.043925 -0.339325 0.073575 -1.508775 0.72255 -1.655925 3.450175 -0.008775 0.168025 -0.014275 0.588575 -0.009875 0.65885 0.008775 0.109825 0.073575 0.32285 0.08455 0.5161 0 0.08785 0.066975 0.4063 -0.056 0.60945 -0.123 0.20315 -0.20095 0.25695 -0.445825 0.25585 -0.394225 0 -0.31075 -0.48425 -0.31075 -0.48425 0.015375 -0.163625 0.043925 -0.329425 0.0538 -0.49525 0.015375 -0.242675 0.007675 -0.472175 0.007675 -0.70715l0 -0.6852c-0.08125 -2.464125 -2.31695 -2.607975 -3.2064 -2.053425 -0.340725 0.179775 -0.625025 0.450375 -0.821375 0.781825 -0.19875 0.3404 -0.493025 0.9806 -1.06295 1.23205 -0.4557 0.20095 -0.644575 0.0659 -1.105775 -0.1724 -0.668725 -0.3459 -1.582325 0.104325 -1.726175 0.790625 -0.0637 0.303075 -0.166925 0.758775 -0.594075 0.650075 -0.297575 -0.075775 -0.2877 -0.529275 -0.2877 -0.8115 0.00605 -0.154625 0.000925 -0.3095 -0.015375 -0.463375 -0.124075 -1.188125 -0.5128 -2.166525 -1.677875 -2.866 -0.471075 -0.283325 -1.4923 -0.6369 -3.11965 0.068075 -0.219625 0.093325 -0.6303 0.122975 -0.878475 -0.0077 -0.152075 -0.08535 -0.2939 -0.187775 -0.422775 -0.30525 -0.233225 -0.2217 -0.445675 -0.4643 -0.634675 -0.72475 -0.0615 -0.07685 -0.32175 -0.4041 -0.3997 -0.47875 -0.40015 -0.387425 -0.8421 -0.7292 -1.3177125 -1.019025 -0.16691 -0.109825 -0.3294275 -0.1801 -0.496335 -0.2855 -0.049415 -0.03075 -0.0988275 -0.0593 -0.1482425 -0.08675v7.20015c0 0.603925 0.428255 1.34515 0.95094 1.647125l8.5497 4.941375c0.5227 0.303075 1.3781 0.303075 1.900775 0l8.5508 -4.9348c0.5227 -0.301975 0.94985 -1.043175 0.94875 -1.647125l-0.0033 -4.5296Z" stroke-width="0.25"></path>
  <path fill="#ffffff" d="M13.086125 11.201075c-0.590775 0.3415 -1.558175 0.3415 -2.14895 0L2.194215 6.5891c0.0988275 0.09775 8.865935 5.190675 8.865935 5.190675 0.5227 0.30305 1.3781 0.30305 1.9008 0 0 0 8.755025 -5.07755 8.85385 -5.1753L13.086125 11.201075Z" stroke-width="0.25"></path>
  <path fill="#ffffff" d="M10.92285 1.1370825c0.591875 -0.33821 1.5582 -0.33821 2.15005 0.0010975l1.05965 0.439235c-0.098825 -0.09773 -1.183725 -0.800505 -1.183725 -0.800505 -0.5227 -0.3019725 -1.377 -0.30307 -1.8997 0 0 0 -1.732775 1.0179275 -1.8305 1.1145575l1.704225 -0.754385Z" stroke-width="0.25"></path>
</svg>