<svg xmlns="http://www.w3.org/2000/svg" viewBox="0 0 24 24" fill="#0099ff">
  <path d="M4.773 1.973C3.217 1.973 2 3.217 2 4.773v14.454c0 1.556 1.217 2.8 2.773 2.8h14.454c1.556 0 2.773-1.244 2.773-2.8V4.773c0-1.556-1.217-2.8-2.773-2.8H4.773zm9.172 6.918a.8.8 0 0 1 .8.8v.327c.609.154 1.145.436 1.508.8l-.436.763a3.254 3.254 0 0 0-1.072-.654v1.89c.327.109.6.218.8.327.436.218.654.545.654 1.072 0 .545-.218.872-.545 1.072a3.599 3.599 0 0 1-.763.436v.327a.8.8 0 0 1-.8.8.8.8 0 0 1-.8-.8v-.327a4.036 4.036 0 0 1-1.508-.8l.436-.763c.327.218.654.436 1.072.654v-1.89c-.327-.109-.6-.218-.8-.327-.436-.218-.654-.545-.654-1.072 0-.545.218-.872.545-1.072.218-.109.436-.218.763-.436v-.327a.8.8 0 0 1 .8-.8z"/>
</svg>
